<svg width="26" height="26" viewBox="0 0 26 26" fill="none" xmlns="http://www.w3.org/2000/svg">
<path d="M22.3438 2.84375H3.65625C3.20684 2.84375 2.84375 3.20684 2.84375 3.65625V22.3438C2.84375 22.7932 3.20684 23.1562 3.65625 23.1562H22.3438C22.7932 23.1562 23.1562 22.7932 23.1562 22.3438V3.65625C23.1562 3.20684 22.7932 2.84375 22.3438 2.84375ZM19.9977 8.77246H18.3752C17.1031 8.77246 16.8568 9.37676 16.8568 10.2654V12.223H19.8936L19.4975 15.2877H16.8568V23.1562H13.6906V15.2902H11.0424V12.223H13.6906V9.96328C13.6906 7.34043 15.2928 5.91094 17.6338 5.91094C18.7561 5.91094 19.7184 5.99473 20.0002 6.03281V8.77246H19.9977Z" fill="black"/>
</svg>
