<svg width="22" height="24" viewBox="0 0 22 24" fill="none" xmlns="http://www.w3.org/2000/svg">
<path d="M18.9062 2.625H3.09375C2.71348 2.625 2.40625 2.96016 2.40625 3.375V20.625C2.40625 21.0398 2.71348 21.375 3.09375 21.375H18.9062C19.2865 21.375 19.5938 21.0398 19.5938 20.625V3.375C19.5938 2.96016 19.2865 2.625 18.9062 2.625ZM7.50449 18.6023H4.9543V9.65391H7.50449V18.6023ZM6.23047 8.43047C5.93812 8.43047 5.65234 8.3359 5.40927 8.15871C5.16619 7.98153 4.97674 7.72969 4.86486 7.43505C4.75298 7.1404 4.72371 6.81618 4.78075 6.50339C4.83778 6.19059 4.97856 5.90327 5.18528 5.67776C5.392 5.45225 5.65537 5.29867 5.9421 5.23645C6.22883 5.17423 6.52603 5.20617 6.79612 5.32821C7.06621 5.45026 7.29707 5.65694 7.45948 5.92211C7.6219 6.18729 7.70859 6.49905 7.70859 6.81797C7.70645 7.70859 7.04473 8.43047 6.23047 8.43047ZM17.0521 18.6023H14.5041V14.25C14.5041 13.2117 14.4869 11.8781 13.1785 11.8781C11.8529 11.8781 11.6488 13.0078 11.6488 14.175V18.6023H9.10293V9.65391H11.5479V10.8773H11.5822C11.9217 10.1742 12.7531 9.43125 13.9949 9.43125C16.5773 9.43125 17.0521 11.2852 17.0521 13.6945V18.6023V18.6023Z" fill="black"/>
</svg>
