<svg width="22" height="24" viewBox="0 0 22 24" fill="none" xmlns="http://www.w3.org/2000/svg">
<path d="M19.9396 5.96017C19.2822 6.26954 18.5668 6.4922 17.8299 6.57892C18.595 6.08306 19.1679 5.2997 19.4412 4.37579C18.7233 4.8417 17.9368 5.16841 17.1166 5.34142C16.7738 4.94163 16.3592 4.62315 15.8987 4.40581C15.4381 4.18847 14.9414 4.07693 14.4396 4.07813C12.4094 4.07813 10.7766 5.87345 10.7766 8.07657C10.7766 8.38595 10.8109 8.69532 10.8668 8.99298C7.82676 8.81954 5.11543 7.23517 3.31289 4.80938C2.98445 5.42137 2.81233 6.1182 2.81445 6.82735C2.81445 8.21485 3.46113 9.43829 4.44727 10.1578C3.86612 10.1329 3.29859 9.9586 2.79082 9.64923V9.69845C2.79082 11.6414 4.0498 13.2516 5.72773 13.6219C5.41268 13.7112 5.08859 13.7568 4.76309 13.7578C4.52461 13.7578 4.29902 13.732 4.07129 13.6969C4.53535 15.2813 5.88672 16.432 7.4959 16.4695C6.23691 17.5453 4.65996 18.1781 2.94766 18.1781C2.64043 18.1781 2.35684 18.1664 2.0625 18.1289C3.68672 19.2656 5.61387 19.9219 7.68926 19.9219C14.4268 19.9219 18.1135 13.8328 18.1135 8.54767C18.1135 8.37423 18.1135 8.20079 18.1027 8.02735C18.816 7.45782 19.4412 6.75235 19.9396 5.96017Z" fill="black"/>
</svg>
