<svg width="37" height="37" viewBox="0 0 37 37" fill="none" xmlns="http://www.w3.org/2000/svg">
<path fill-rule="evenodd" clip-rule="evenodd" d="M18.4999 3.08325C9.98992 3.08325 3.08325 9.98992 3.08325 18.4999C3.08325 27.0099 9.98992 33.9166 18.4999 33.9166C27.0099 33.9166 33.9166 27.0099 33.9166 18.4999C33.9166 9.98992 27.0099 3.08325 18.4999 3.08325ZM18.4999 7.70825C21.0591 7.70825 23.1249 9.77409 23.1249 12.3333C23.1249 14.8924 21.0591 16.9583 18.4999 16.9583C15.9408 16.9583 13.8749 14.8924 13.8749 12.3333C13.8749 9.77409 15.9408 7.70825 18.4999 7.70825ZM9.24992 24.6357C11.2387 27.6266 14.6458 29.5999 18.4999 29.5999C22.3541 29.5999 25.7612 27.6266 27.7499 24.6357C27.7037 21.5678 21.5678 19.8874 18.4999 19.8874C15.4166 19.8874 9.29617 21.5678 9.24992 24.6357Z" fill="black" fill-opacity="0.54"/>
</svg>
