<svg xmlns="http://www.w3.org/2000/svg" xmlns:xlink="http://www.w3.org/1999/xlink" version="1.1" x="0px" y="0px" viewBox="0 0 64 80" enable-background="new 0 0 64 64" xml:space="preserve"><g><g><path d="M59.765,3.235c-1.889-1.889-4.399-2.929-7.071-2.929c-2.671,0-5.182,1.041-7.07,2.929L32.895,15.963    c-2.015,2.016-0.495,6.576,3.536,10.606C39.163,29.302,42.308,31,44.637,31c0.984,0,1.814-0.31,2.4-0.895l12.728-12.728    c1.889-1.888,2.929-4.399,2.929-7.071C62.693,7.635,61.653,5.124,59.765,3.235z M37.845,25.155    c-3.453-3.453-4.4-6.914-3.536-7.778c0.205-0.205,0.537-0.309,0.986-0.309c1.467,0,4.136,1.189,6.792,3.845    c3.453,3.453,4.4,6.913,3.536,7.778C44.749,29.566,41.313,28.624,37.845,25.155z M58.351,15.963L47.79,26.524    c-0.428-2.11-1.921-4.658-4.289-7.026c-1.001-1-2.057-1.859-3.107-2.549l8.765-8.765c1.95-1.95,5.123-1.949,7.071,0l1.414-1.414    c-2.728-2.729-7.17-2.73-9.899,0l-9.165,9.165c-0.729-0.342-1.437-0.588-2.104-0.725L47.037,4.649    c1.511-1.511,3.521-2.343,5.657-2.343s4.146,0.832,5.656,2.343s2.343,3.52,2.343,5.657C60.693,12.443,59.861,14.452,58.351,15.963    z"/><path d="M19.057,44c2.329,0,5.473-1.698,8.206-4.431c4.031-4.031,5.551-8.591,3.536-10.606L18.07,16.235    c-1.889-1.889-4.4-2.929-7.071-2.929c0,0,0,0,0,0c-2.671,0-5.182,1.041-7.07,2.929S1,20.635,1,23.306    c0,2.671,1.041,5.183,2.929,7.071l12.728,12.728C17.242,43.69,18.072,44,19.057,44L19.057,44z M3,23.306    c0-2.137,0.833-4.146,2.343-5.657c1.511-1.511,3.52-2.343,5.657-2.343s4.146,0.833,5.657,2.343L27.218,28.21    c-0.667,0.137-1.374,0.383-2.104,0.725l-9.165-9.165c-2.729-2.729-7.17-2.729-9.899,0l1.414,1.414    c1.949-1.949,5.122-1.949,7.071,0l8.765,8.765c-1.051,0.69-2.106,1.549-3.107,2.549c-2.369,2.368-3.861,4.916-4.289,7.026    L5.343,28.963C3.832,27.452,3,25.443,3,23.306z M21.606,33.913c2.656-2.656,5.325-3.845,6.792-3.845    c0.449,0,0.781,0.104,0.986,0.309c0.865,0.865-0.083,4.325-3.536,7.778c-3.469,3.469-6.904,4.41-7.778,3.536    C17.206,40.826,18.153,37.366,21.606,33.913z"/><path d="M45,37c0-2.757-2.243-5-5-5s-5,2.243-5,5s2.243,5,5,5S45,39.757,45,37z M37,37c0-1.654,1.346-3,3-3s3,1.346,3,3    s-1.346,3-3,3S37,38.654,37,37z"/><path d="M45,46c-2.757,0-5,2.243-5,5s2.243,5,5,5s5-2.243,5-5S47.757,46,45,46z M45,54c-1.654,0-3-1.346-3-3s1.346-3,3-3    c1.302,0,2.401,0.838,2.815,2H45v2h2.815C47.401,53.162,46.302,54,45,54z"/><path d="M25,49c-3.86,0-7,3.14-7,7s3.14,7,7,7s7-3.14,7-7S28.86,49,25,49z M25,61c-2.757,0-5-2.243-5-5    c0-1.018,0.309-1.962,0.833-2.753l4.46,4.46l1.414-1.414l-4.46-4.46C23.038,51.309,23.982,51,25,51c2.757,0,5,2.243,5,5    S27.757,61,25,61z"/></g></g></svg>