<svg width="26" height="26" viewBox="0 0 26 26" fill="none" xmlns="http://www.w3.org/2000/svg">
<path d="M22.3438 2.84375H3.65625C3.20684 2.84375 2.84375 3.20684 2.84375 3.65625V22.3438C2.84375 22.7932 3.20684 23.1562 3.65625 23.1562H22.3438C22.7932 23.1562 23.1562 22.7932 23.1562 22.3438V3.65625C23.1562 3.20684 22.7932 2.84375 22.3438 2.84375ZM8.86895 20.1525H5.85508V10.4584H8.86895V20.1525ZM7.36328 9.13301C7.01778 9.13301 6.68004 9.03056 6.39277 8.83861C6.1055 8.64666 5.8816 8.37383 5.74938 8.05463C5.61716 7.73543 5.58257 7.38419 5.64997 7.04533C5.71738 6.70647 5.88375 6.39521 6.12805 6.15091C6.37236 5.9066 6.68362 5.74023 7.02248 5.67282C7.36134 5.60542 7.71258 5.64001 8.03178 5.77223C8.35098 5.90445 8.62381 6.12835 8.81575 6.41562C9.0077 6.70289 9.11016 7.04063 9.11016 7.38613C9.10762 8.35098 8.32559 9.13301 7.36328 9.13301ZM20.1525 20.1525H17.1412V15.4375C17.1412 14.3127 17.1209 12.868 15.5746 12.868C14.008 12.868 13.7668 14.0918 13.7668 15.3562V20.1525H10.758V10.4584H13.6475V11.7838H13.6881C14.0893 11.0221 15.0719 10.2172 16.5395 10.2172C19.5914 10.2172 20.1525 12.2256 20.1525 14.8357V20.1525Z" fill="black"/>
</svg>
