<svg xmlns="http://www.w3.org/2000/svg" xmlns:xlink="http://www.w3.org/1999/xlink" version="1.1" x="0px" y="0px" viewBox="0 0 100 125" enable-background="new 0 0 100 100" xml:space="preserve"><g><path d="M49.549,32.34c3.905,0,7.088-3.175,7.088-7.086c0-3.923-3.183-7.098-7.088-7.098c-3.924,0-7.104,3.175-7.104,7.098   C42.445,29.165,45.625,32.34,49.549,32.34z"/><g><path d="M72.376,71.68l12.562,0.002c0.179,0.009,4.495,0.076,6.532-3.812c2.457-4.688,3.338-13.202,2.146-20.713    c-0.195-1.232,0.645-2.391,1.878-2.586c1.241-0.195,2.391,0.645,2.586,1.877c1.126,7.087,0.757,17.104-2.605,23.52    c-3.113,5.943-9.298,6.236-10.438,6.236c-0.102,0-0.163-0.002-0.18-0.003h-12.48c-1.247,0-2.26-1.013-2.26-2.26    C70.116,72.692,71.129,71.68,72.376,71.68z"/><path d="M74.458,30.926c-3.904,0-7.088-3.175-7.088-7.086c0-3.923,3.184-7.098,7.088-7.098c3.925,0,7.104,3.175,7.104,7.098    C81.562,27.751,78.383,30.926,74.458,30.926z"/></g><g><path d="M26.862,71.68l-12.562,0.002c-0.178,0.009-4.495,0.076-6.531-3.812c-2.458-4.688-3.339-13.202-2.147-20.713    c0.196-1.232-0.645-2.391-1.877-2.586c-1.242-0.195-2.391,0.645-2.587,1.877c-1.125,7.087-0.756,17.104,2.606,23.52    c3.113,5.943,9.298,6.236,10.438,6.236c0.102,0,0.164-0.002,0.18-0.003h12.48c1.248,0,2.26-1.013,2.26-2.26    C29.123,72.692,28.11,71.68,26.862,71.68z"/><path d="M24.78,30.926c3.905,0,7.088-3.175,7.088-7.086c0-3.923-3.183-7.098-7.088-7.098c-3.924,0-7.104,3.175-7.104,7.098    C17.676,27.751,20.856,30.926,24.78,30.926z"/><path d="M76.638,32.498c0,0-2.994,1.196-3.066,8.3c-0.121,1.019-0.235,2.909-0.31,5.264H59.471c-1.698,0-3.074,1.376-3.074,3.079    c0,1.508,1.08,2.754,2.505,3.022H40.338c1.424-0.268,2.504-1.514,2.504-3.022c0-1.703-1.375-3.079-3.074-3.079H25.977    c-0.073-2.355-0.188-4.245-0.309-5.264c-0.072-7.104-3.066-8.3-3.066-8.3C8.895,26.609,9.045,60.746,12.8,65.488    c0,0,1.258,2.238,4.521,2.238H33.45v20.442c0,2.327,1.486,4.443,4.27,4.443c2.479,0,3.945-1.932,3.945-4.249V69.287l14.402,8.28    c0.479,0.274,0.988,0.466,1.507,0.576v10.22c0,2.317,1.465,4.249,3.944,4.249c2.784,0,4.271-2.116,4.271-4.443V67.727h16.294    c1.334,0,2.354-0.375,3.104-0.917c0.67-0.483,1.251-1.321,1.251-1.321C90.193,60.746,90.344,26.609,76.638,32.498z M62.5,57.889    h-0.015c-2.716,0-4.919,2.202-4.919,4.919c0,0.071,0.018,0.14,0.022,0.212c-0.008,0.036-0.015,0.073-0.015,0.111v5.956    l-18.47-10.616c-0.129-0.075-0.748-0.337-0.924-0.375c-0.433-0.125-0.971-0.207-1.442-0.207H25.915    c0.025-0.578,0.04-1.16,0.059-1.741h47.291c0.02,0.581,0.034,1.163,0.06,1.741H62.5z"/></g><path d="M62.146,44.062v-1.883c0-4.161-3.372-7.534-7.533-7.534H44.441c-4.161,0-7.534,3.373-7.534,7.534v1.883H62.146z"/></g></svg>