<svg width="24" height="24" viewBox="0 0 24 24" fill="none" xmlns="http://www.w3.org/2000/svg">
<path d="M13.4196 15.7597C13.0655 15.8531 12.6911 15.8999 12.2962 15.8999C11.697 15.8999 11.1523 15.7931 10.6621 15.5795C10.1719 15.3659 9.74979 15.0655 9.39574 14.6783C9.0417 14.2912 8.76255 13.8373 8.5583 13.3166C8.36766 12.796 8.27234 12.2219 8.27234 11.5945C8.27234 10.967 8.36766 10.393 8.5583 9.87234C8.76255 9.35169 9.0417 8.89779 9.39574 8.51064C9.74979 8.12349 10.1719 7.82311 10.6621 7.60951C11.1523 7.39591 11.6834 7.28911 12.2553 7.28911C12.8272 7.28911 13.3583 7.39591 13.8485 7.60951C14.3387 7.82311 14.7609 8.12349 15.1149 8.51064C15.4689 8.89779 15.7413 9.35836 15.9319 9.89236C16.1362 10.4264 16.2383 11.0138 16.2383 11.6546C16.2383 12.1085 16.1838 12.5357 16.0749 12.9362C15.9796 13.3233 15.8366 13.6771 15.646 13.9975L13.4604 11.3342L11.234 13.0964L13.4196 15.7597Z" fill="#FB2046"/>
<path fill-rule="evenodd" clip-rule="evenodd" d="M12 0C5.37258 0 0 5.37258 0 12C0 18.6274 5.37258 24 12 24H24V12C24 5.37258 18.6274 0 12 0ZM9.72255 18.7434C10.4715 18.9837 11.2613 19.1039 12.0919 19.1039C12.7047 19.1039 13.2902 19.0371 13.8485 18.9036C14.4204 18.7701 14.9651 18.5832 15.4826 18.3429L17.1983 20.4255L19.5064 18.6033L17.8723 16.6007C18.4987 15.9199 18.9957 15.1389 19.3634 14.2578C19.7311 13.3767 19.9149 12.4355 19.9149 11.4343C19.9149 10.6199 19.7923 9.84564 19.5472 9.11139C19.3021 8.36379 18.9481 7.68961 18.4851 7.08886C18.0221 6.47476 17.4774 5.94743 16.8511 5.50688C16.2247 5.05298 15.5234 4.70588 14.7472 4.46558C13.9711 4.21193 13.1472 4.08511 12.2757 4.08511C11.4043 4.08511 10.5804 4.21193 9.80425 4.46558C9.02809 4.70588 8.32 5.05298 7.68 5.50688C7.05362 5.94743 6.50894 6.48143 6.04596 7.10889C5.58298 7.72299 5.22213 8.41719 4.9634 9.19149C4.7183 9.95244 4.59574 10.7601 4.59574 11.6145C4.59574 12.4689 4.7183 13.2766 4.9634 14.0375C5.22213 14.7985 5.57617 15.4927 6.02553 16.1201C6.48851 16.7343 7.03319 17.2682 7.65957 17.7222C8.28596 18.1627 8.97362 18.5031 9.72255 18.7434Z" fill="#FB2046"/>
</svg>
