<svg xmlns="http://www.w3.org/2000/svg" xmlns:xlink="http://www.w3.org/1999/xlink" version="1.1" x="0px" y="0px" viewBox="0 0 100 125" enable-background="new 0 0 100 100" xml:space="preserve"><g><g><path d="M72.922,48.498l0.713-16.21c0.032-0.245,0.096-0.478,0.111-0.729c0.354-5.779-4.048-10.75-9.827-11.102    c-0.979-0.061-9.847-0.512-19.997,1.878c-10.934,2.575-18.006,8.068-18.777,8.683c-3.408,2.732-4.673,7.177-3.538,11.134    l6.754,21.724l7.153,0.062l-6.078-17.781l8.985,19.878l-27.337-0.229l-0.109,13.104l37.582,0.315c0.019,0,0.037,0,0.055,0    c2.214,0,4.281-1.119,5.492-2.978c1.219-1.872,1.399-4.238,0.479-6.274L43.139,44.652c1.572-0.704,3.443-1.404,5.588-1.909    c4.591-1.081,8.955-1.335,11.541-1.378l1.637-8.735l-2.125,22.563c-0.159,1.691,0.511,3.354,1.798,4.461    c0.962,0.83,2.181,1.271,3.421,1.271c0.419,0,0.842-0.049,1.259-0.153l25.136-7.84l-1.764-7.123L72.922,48.498z"/><path d="M99.123,28.233c-2.542-6.375-9.747-9.477-16.104-6.942c-6.359,2.53-9.465,9.724-6.927,16.095    c2.53,6.355,9.728,9.46,16.091,6.93C98.541,41.794,101.646,34.585,99.123,28.233z"/><path d="M66.361,62.189c-0.478,0.121-0.973,0.16-1.467,0.18l6.316,17.247l7.035-2.099l-4.248-18.471L66.361,62.189z"/><polygon points="0,78.909 8.892,78.984 9.75,65.885 0.109,65.805   "/></g></g></svg>