<svg width="24" height="24" viewBox="0 0 24 24" fill="none" xmlns="http://www.w3.org/2000/svg">
<path d="M21.7501 5.96017C21.033 6.26954 20.2525 6.4922 19.4486 6.57892C20.2832 6.08306 20.9082 5.2997 21.2064 4.37579C20.4232 4.8417 19.5652 5.16841 18.6705 5.34142C18.2965 4.94163 17.8442 4.62315 17.3418 4.40581C16.8394 4.18847 16.2976 4.07693 15.7501 4.07813C13.5353 4.07813 11.7541 5.87345 11.7541 8.07657C11.7541 8.38595 11.7916 8.69532 11.8525 8.99298C8.53608 8.81954 5.57827 7.23517 3.61187 4.80938C3.25357 5.42137 3.0658 6.1182 3.06811 6.82735C3.06811 8.21485 3.77358 9.43829 4.84936 10.1578C4.21539 10.1329 3.59626 9.9586 3.04233 9.64923V9.69845C3.04233 11.6414 4.41577 13.2516 6.24624 13.6219C5.90255 13.7112 5.54899 13.7568 5.1939 13.7578C4.93374 13.7578 4.68765 13.732 4.43921 13.6969C4.94546 15.2813 6.41968 16.432 8.17515 16.4695C6.80171 17.5453 5.0814 18.1781 3.21343 18.1781C2.87827 18.1781 2.5689 18.1664 2.2478 18.1289C4.01968 19.2656 6.12202 19.9219 8.38608 19.9219C15.7361 19.9219 19.758 13.8328 19.758 8.54767C19.758 8.37423 19.758 8.20079 19.7462 8.02735C20.5244 7.45782 21.2064 6.75235 21.7501 5.96017Z" fill="black"/>
</svg>
