<svg width="20" height="20" viewBox="0 0 20 20" fill="none" xmlns="http://www.w3.org/2000/svg">
<path d="M10 20C4.49 20 0 15.51 0 10C0 4.49 4.49 0 10 0C15.51 0 20 4.04 20 9C20 12.31 17.31 15 14 15H12.23C11.95 15 11.73 15.22 11.73 15.5C11.73 15.62 11.78 15.73 11.86 15.83C12.27 16.3 12.5 16.89 12.5 17.5C12.5 18.163 12.2366 18.7989 11.7678 19.2678C11.2989 19.7366 10.663 20 10 20ZM10 2C5.59 2 2 5.59 2 10C2 14.41 5.59 18 10 18C10.28 18 10.5 17.78 10.5 17.5C10.4969 17.3703 10.4472 17.2461 10.36 17.15C9.95 16.69 9.73 16.1 9.73 15.5C9.73 14.837 9.99339 14.2011 10.4622 13.7322C10.9311 13.2634 11.567 13 12.23 13H14C16.21 13 18 11.21 18 9C18 5.14 14.41 2 10 2Z" fill="black"/>
<path d="M4.5 11C5.32843 11 6 10.3284 6 9.5C6 8.67157 5.32843 8 4.5 8C3.67157 8 3 8.67157 3 9.5C3 10.3284 3.67157 11 4.5 11Z" fill="black"/>
<path d="M7.5 7C8.32843 7 9 6.32843 9 5.5C9 4.67157 8.32843 4 7.5 4C6.67157 4 6 4.67157 6 5.5C6 6.32843 6.67157 7 7.5 7Z" fill="black"/>
<path d="M12.5 7C13.3284 7 14 6.32843 14 5.5C14 4.67157 13.3284 4 12.5 4C11.6716 4 11 4.67157 11 5.5C11 6.32843 11.6716 7 12.5 7Z" fill="black"/>
<path d="M15.5 11C16.3284 11 17 10.3284 17 9.5C17 8.67157 16.3284 8 15.5 8C14.6716 8 14 8.67157 14 9.5C14 10.3284 14.6716 11 15.5 11Z" fill="black"/>
</svg>
